<svg width="434" height="318" viewBox="0 0 434 318" fill="none" xmlns="http://www.w3.org/2000/svg">
<rect x="210.972" y="25.1968" width="194.338" height="76.4854" fill="#3FFFF3"/>
<g opacity="0.15">
<path opacity="0.15" d="M200.749 200.105V199.731V190.554H220.758V199.731V200.105V209.095V209.469V218.458V218.832V227.804V228.178V237.168V237.542V246.531V246.905V255.877V256.251V265.24V265.614V274.604V274.978V283.95V284.324V293.313V293.687V302.882H200.749V293.687V293.313V284.324V283.95V274.978V274.604V265.614V265.24V256.251V255.877V246.905V246.531V237.542V237.168V228.178V227.804V218.832V218.458V209.469V209.095V200.105Z" stroke="#04146C" stroke-width="0.337329"/>
<path opacity="0.15" d="M360.578 190.555H361.005H380.756V199.937H361.005H360.578H341.103H340.658H321.184H320.739H301.282H300.837H281.362H280.917H261.46H261.015H241.54H241.095H221.362V190.555H241.095H241.54H261.015H261.46H280.917H281.362H300.837H301.282H320.739H321.184H340.658H341.103H360.578Z" stroke="#04146C" stroke-width="0.337329"/>
</g>
<path d="M220.927 190.386H200.58V200.123H220.927V190.386Z" stroke="#04146C" stroke-width="0.337329" stroke-linecap="round" stroke-linejoin="round"/>
<path d="M220.926 199.733H200.579V209.47H220.926V199.733Z" stroke="#04146C" stroke-width="0.337329" stroke-linecap="round" stroke-linejoin="round"/>
<path d="M220.926 209.1H200.579V218.837H220.926V209.1Z" stroke="#04146C" stroke-width="0.337329" stroke-linecap="round" stroke-linejoin="round"/>
<path d="M220.926 218.458H200.579V228.195H220.926V218.458Z" stroke="#04146C" stroke-width="0.337329" stroke-linecap="round" stroke-linejoin="round"/>
<path d="M220.926 227.808H200.579V237.545H220.926V227.808Z" stroke="#04146C" stroke-width="0.337329" stroke-linecap="round" stroke-linejoin="round"/>
<path d="M220.926 237.169H200.579V246.907H220.926V237.169Z" stroke="#04146C" stroke-width="0.337329" stroke-linecap="round" stroke-linejoin="round"/>
<path d="M241.539 190.386H221.192V200.124H241.539V190.386Z" stroke="#04146C" stroke-width="0.337329" stroke-linecap="round" stroke-linejoin="round"/>
<path d="M261.444 190.386H241.097V200.124H261.444V190.386Z" stroke="#04146C" stroke-width="0.337329" stroke-linecap="round" stroke-linejoin="round"/>
<path d="M281.362 190.386H261.015V200.124H281.362V190.386Z" stroke="#04146C" stroke-width="0.337329" stroke-linecap="round" stroke-linejoin="round"/>
<path d="M301.266 190.386H280.919V200.124H301.266V190.386Z" stroke="#04146C" stroke-width="0.337329" stroke-linecap="round" stroke-linejoin="round"/>
<path d="M321.183 190.386H300.836V200.124H321.183V190.386Z" stroke="#04146C" stroke-width="0.337329" stroke-linecap="round" stroke-linejoin="round"/>
<path d="M341.087 190.386H320.74V200.124H341.087V190.386Z" stroke="#04146C" stroke-width="0.337329" stroke-linecap="round" stroke-linejoin="round"/>
<path d="M380.908 200.108H220.927V303.036H380.908V200.108Z" stroke="#04146C" stroke-width="0.337329" stroke-linecap="round" stroke-linejoin="round"/>
<path d="M241.274 200.108V303.018" stroke="#04146C" stroke-width="0.337329" stroke-linecap="round" stroke-linejoin="round"/>
<path d="M261.193 200.108V303.018" stroke="#04146C" stroke-width="0.337329" stroke-linecap="round" stroke-linejoin="round"/>
<path d="M281.114 200.108V303.018" stroke="#04146C" stroke-width="0.337329" stroke-linecap="round" stroke-linejoin="round"/>
<path d="M301.034 200.108V303.018" stroke="#04146C" stroke-width="0.337329" stroke-linecap="round" stroke-linejoin="round"/>
<path d="M320.935 200.108V303.018" stroke="#04146C" stroke-width="0.337329" stroke-linecap="round" stroke-linejoin="round"/>
<path d="M340.854 200.108V303.018" stroke="#04146C" stroke-width="0.337329" stroke-linecap="round" stroke-linejoin="round"/>
<path d="M360.774 200.108V303.018" stroke="#04146C" stroke-width="0.337329" stroke-linecap="round" stroke-linejoin="round"/>
<path d="M220.927 209.469H380.801" stroke="#04146C" stroke-width="0.337329" stroke-linecap="round" stroke-linejoin="round"/>
<path d="M220.927 218.799H380.801" stroke="#04146C" stroke-width="0.337329" stroke-linecap="round" stroke-linejoin="round"/>
<path d="M220.927 228.127H380.801" stroke="#04146C" stroke-width="0.337329" stroke-linecap="round" stroke-linejoin="round"/>
<path d="M220.927 237.454H380.801" stroke="#04146C" stroke-width="0.337329" stroke-linecap="round" stroke-linejoin="round"/>
<path d="M220.927 246.785H380.801" stroke="#04146C" stroke-width="0.337329" stroke-linecap="round" stroke-linejoin="round"/>
<path d="M220.927 256.093H380.801" stroke="#04146C" stroke-width="0.337329" stroke-linecap="round" stroke-linejoin="round"/>
<path d="M220.927 265.42H380.801" stroke="#04146C" stroke-width="0.337329" stroke-linecap="round" stroke-linejoin="round"/>
<path d="M220.927 274.748H380.801" stroke="#04146C" stroke-width="0.337329" stroke-linecap="round" stroke-linejoin="round"/>
<path d="M220.927 284.074H380.801" stroke="#04146C" stroke-width="0.337329" stroke-linecap="round" stroke-linejoin="round"/>
<path d="M220.927 293.406H380.801" stroke="#04146C" stroke-width="0.337329" stroke-linecap="round" stroke-linejoin="round"/>
<path d="M104.231 71.481V56.4238L92.9602 55.4648C92.3014 53.1099 91.3686 50.8406 90.1809 48.7034L97.4551 40.0719L86.8169 29.4264L78.1915 36.7056C76.0736 35.5126 73.8216 34.5757 71.4827 33.9147L70.5243 22.6362H55.353L54.3946 33.9147C52.0558 34.5757 49.8038 35.5126 47.6859 36.7056L39.0604 29.4264L28.4223 40.0719L35.6965 48.7034C34.5088 50.8406 33.576 53.1099 32.9171 55.4648L21.6465 56.4238V71.481L32.9171 72.4401C33.5795 74.7784 34.5123 77.0315 35.6965 79.1535L28.4223 87.785L39.0604 98.4305L47.6859 91.1513C49.8038 92.3443 52.0558 93.2811 54.3946 93.9421L55.353 105.221H70.3997L71.3581 93.9421C73.7126 93.282 75.9806 92.3452 78.1148 91.1513L86.7403 98.4305L97.3784 87.785L90.1042 79.1535C91.2885 77.0315 92.2212 74.7784 92.8836 72.4401L104.231 71.481ZM62.9243 81.4456C59.4669 81.4456 56.0871 80.4197 53.2124 78.4975C50.3376 76.5753 48.097 73.8432 46.7739 70.6468C45.4509 67.4503 45.1047 63.933 45.7792 60.5397C46.4537 57.1463 48.1186 54.0293 50.5634 51.5828C53.0081 49.1364 56.1229 47.4703 59.5139 46.7953C62.9049 46.1204 66.4198 46.4668 69.614 47.7908C72.8082 49.1148 75.5384 51.357 77.4593 54.2337C79.3801 57.1105 80.4053 60.4926 80.4053 63.9524C80.4041 66.2525 79.9498 68.5298 79.0685 70.6541C78.1871 72.7785 76.896 74.7081 75.2689 76.3327C73.6418 77.9574 71.7107 79.2452 69.586 80.1225C67.4612 80.9998 65.1845 81.4494 62.886 81.4456H62.9243Z" stroke="#04146C" stroke-width="0.860254" stroke-linecap="round" stroke-linejoin="round"/>
<path d="M131.758 34.7738V29.441L127.767 29.1014C127.533 28.2674 127.203 27.4637 126.782 26.7067L129.359 23.6497L125.591 19.8794L122.536 22.4575C121.786 22.035 120.988 21.7032 120.16 21.4691L119.821 17.4746H114.448L114.108 21.4691C113.28 21.7032 112.482 22.035 111.732 22.4575L108.677 19.8794L104.91 23.6497L107.486 26.7067C107.065 27.4637 106.735 28.2674 106.501 29.1014L102.51 29.441V34.7738L106.501 35.1135C106.736 35.9416 107.066 36.7396 107.486 37.4911L104.91 40.5481L108.677 44.3184L111.732 41.7403C112.482 42.1629 113.28 42.4947 114.108 42.7288L114.448 46.7233H119.777L120.116 42.7288C120.95 42.495 121.753 42.1632 122.509 41.7403L125.564 44.3184L129.331 40.5481L126.755 37.4911C127.175 36.7396 127.505 35.9416 127.74 35.1135L131.758 34.7738ZM117.129 38.3029C115.904 38.3029 114.707 37.9396 113.689 37.2588C112.671 36.578 111.878 35.6104 111.409 34.4783C110.94 33.3463 110.818 32.1005 111.057 30.8987C111.296 29.6969 111.885 28.593 112.751 27.7265C113.617 26.8601 114.72 26.27 115.921 26.031C117.122 25.7919 118.367 25.9146 119.498 26.3835C120.63 26.8524 121.596 27.6465 122.277 28.6654C122.957 29.6842 123.32 30.8821 123.32 32.1074C123.32 32.922 123.159 33.7286 122.847 34.481C122.535 35.2333 122.077 35.9167 121.501 36.4921C120.925 37.0675 120.241 37.5236 119.488 37.8343C118.736 38.145 117.929 38.3043 117.115 38.3029H117.129Z" stroke="#04146C" stroke-width="0.860254" stroke-linecap="round" stroke-linejoin="round"/>
<path d="M408.187 108.741L415.227 98.9817" stroke="#04146C" stroke-width="0.860254" stroke-linecap="round" stroke-linejoin="round"/>
<path d="M422.042 122.16L431.132 120.523" stroke="#04146C" stroke-width="0.860254" stroke-linecap="round" stroke-linejoin="round"/>
<path d="M418.65 142.141L426.488 144.589" stroke="#04146C" stroke-width="0.860254" stroke-linecap="round" stroke-linejoin="round"/>
<path d="M387.779 108.917L385.363 95.6387" stroke="#04146C" stroke-width="0.860254" stroke-linecap="round" stroke-linejoin="round"/>
<path d="M373.026 127.887L367.181 126.064" stroke="#04146C" stroke-width="0.860254" stroke-linecap="round" stroke-linejoin="round"/>
<path d="M396.079 153.41L396.082 153.409C397.551 152.34 399.127 151.375 400.696 150.425C400.799 150.363 400.901 150.301 401.003 150.239C402.473 149.35 403.93 148.469 405.304 147.51C408.24 145.463 410.75 143.097 412.099 139.666C413.859 135.072 413.734 129.968 411.75 125.466C409.766 120.963 406.083 117.426 401.504 115.626C396.925 113.825 391.82 113.907 387.3 115.853C382.781 117.798 379.214 121.449 377.374 126.012C376.026 129.444 376.257 132.887 377.013 136.385C377.362 138.003 377.821 139.62 378.284 141.251C378.322 141.385 378.361 141.52 378.399 141.654C378.898 143.416 379.391 145.193 379.731 146.971M396.079 153.41L379.309 147.053M396.079 153.41C395.557 153.796 395.033 154.521 394.55 155.325C394.059 156.145 393.579 157.105 393.159 158.015C392.739 158.926 392.375 159.795 392.117 160.435C392.014 160.691 391.927 160.911 391.86 161.083M396.079 153.41L392.26 161.24M379.731 146.971C379.731 146.971 379.731 146.972 379.731 146.972L379.309 147.053M379.731 146.971C379.731 146.971 379.731 146.971 379.731 146.97L379.309 147.053M379.731 146.971C379.856 147.609 379.749 148.497 379.556 149.415C379.36 150.351 379.058 151.382 378.747 152.335C378.435 153.29 378.11 154.175 377.863 154.821C377.764 155.08 377.677 155.301 377.609 155.473M379.309 147.053C379.671 148.908 377.782 153.872 377.209 155.315L377.609 155.473M377.609 155.473C377.592 155.515 377.576 155.555 377.562 155.591C377.525 155.683 377.496 155.754 377.476 155.803L377.453 155.859L377.448 155.872L391.707 161.484L391.711 161.472L391.732 161.416C391.742 161.391 391.753 161.361 391.766 161.326C391.78 161.29 391.796 161.249 391.814 161.203C391.828 161.166 391.843 161.126 391.86 161.083M377.609 155.473L391.86 161.083M391.86 161.083L392.26 161.24M392.26 161.24C392.822 159.794 394.813 154.881 396.335 153.756C397.882 152.63 399.555 151.618 401.229 150.606C405.837 147.818 410.456 145.024 412.5 139.821L392.26 161.24Z" fill="white" stroke="#04146C" stroke-width="0.860254"/>
<mask id="path-42-inside-1_13868:116967" fill="white">
<path fill-rule="evenodd" clip-rule="evenodd" d="M385.606 164.867L385.678 164.895C386.822 165.344 388.098 165.321 389.225 164.831C390.353 164.342 391.24 163.425 391.694 162.283L376.629 156.352C376.406 156.918 376.296 157.524 376.307 158.133C376.318 158.742 376.449 159.343 376.693 159.902C376.936 160.46 377.287 160.965 377.726 161.388C378.007 161.658 378.319 161.891 378.656 162.082C378.61 162.264 378.591 162.454 378.6 162.646C378.613 162.914 378.681 163.18 378.8 163.429C378.919 163.678 379.086 163.905 379.292 164.096C379.499 164.288 379.74 164.441 380.002 164.546L382.976 165.744C383.505 165.957 384.089 165.963 384.598 165.763C385.039 165.589 385.394 165.272 385.606 164.867Z"/>
</mask>
<path fill-rule="evenodd" clip-rule="evenodd" d="M385.606 164.867L385.678 164.895C386.822 165.344 388.098 165.321 389.225 164.831C390.353 164.342 391.24 163.425 391.694 162.283L376.629 156.352C376.406 156.918 376.296 157.524 376.307 158.133C376.318 158.742 376.449 159.343 376.693 159.902C376.936 160.46 377.287 160.965 377.726 161.388C378.007 161.658 378.319 161.891 378.656 162.082C378.61 162.264 378.591 162.454 378.6 162.646C378.613 162.914 378.681 163.18 378.8 163.429C378.919 163.678 379.086 163.905 379.292 164.096C379.499 164.288 379.74 164.441 380.002 164.546L382.976 165.744C383.505 165.957 384.089 165.963 384.598 165.763C385.039 165.589 385.394 165.272 385.606 164.867Z" fill="#04146C"/>
<path d="M385.678 164.895L385.363 165.696L385.364 165.696L385.678 164.895ZM385.606 164.867L385.921 164.066L385.202 163.783L384.844 164.468L385.606 164.867ZM391.694 162.283L392.493 162.6L392.811 161.798L392.009 161.482L391.694 162.283ZM376.629 156.352L376.944 155.551L376.144 155.236L375.829 156.036L376.629 156.352ZM376.307 158.133L375.447 158.148L375.447 158.148L376.307 158.133ZM376.693 159.902L375.904 160.245L375.904 160.245L376.693 159.902ZM377.726 161.388L378.323 160.768L378.323 160.768L377.726 161.388ZM378.656 162.082L379.49 162.292L379.65 161.656L379.08 161.333L378.656 162.082ZM378.6 162.646L379.46 162.604L379.46 162.604L378.6 162.646ZM378.8 163.429L379.576 163.058L379.576 163.058L378.8 163.429ZM379.292 164.096L379.878 163.466L379.878 163.466L379.292 164.096ZM380.002 164.546L380.324 163.748L380.323 163.748L380.002 164.546ZM382.976 165.744L382.655 166.542L382.656 166.542L382.976 165.744ZM384.598 165.763L384.913 166.563L384.913 166.563L384.598 165.763ZM385.993 164.095L385.921 164.066L385.291 165.667L385.363 165.696L385.993 164.095ZM388.883 164.042C387.964 164.441 386.924 164.46 385.992 164.094L385.364 165.696C386.72 166.228 388.232 166.201 389.568 165.62L388.883 164.042ZM390.894 161.965C390.525 162.896 389.801 163.643 388.883 164.042L389.568 165.62C390.904 165.04 391.956 163.954 392.493 162.6L390.894 161.965ZM376.314 157.152L391.379 163.083L392.009 161.482L376.944 155.551L376.314 157.152ZM377.168 158.118C377.159 157.621 377.248 157.128 377.429 156.667L375.829 156.036C375.564 156.709 375.434 157.426 375.447 158.148L377.168 158.118ZM377.481 159.558C377.283 159.103 377.176 158.614 377.168 158.118L375.447 158.148C375.46 158.871 375.616 159.583 375.904 160.245L377.481 159.558ZM378.323 160.768C377.966 160.424 377.68 160.013 377.481 159.558L375.904 160.245C376.193 160.908 376.609 161.506 377.13 162.008L378.323 160.768ZM379.08 161.333C378.806 161.178 378.551 160.988 378.323 160.768L377.13 162.008C377.462 162.327 377.832 162.604 378.232 162.83L379.08 161.333ZM379.46 162.604C379.454 162.496 379.465 162.391 379.49 162.292L377.822 161.871C377.755 162.137 377.728 162.412 377.741 162.688L379.46 162.604ZM379.576 163.058C379.505 162.91 379.467 162.755 379.46 162.604L377.741 162.688C377.76 163.073 377.857 163.45 378.024 163.799L379.576 163.058ZM379.878 163.466C379.749 163.347 379.647 163.207 379.576 163.058L378.024 163.799C378.19 164.148 378.423 164.463 378.707 164.726L379.878 163.466ZM380.323 163.748C380.158 163.682 380.007 163.586 379.878 163.466L378.707 164.726C378.991 164.99 379.322 165.2 379.682 165.345L380.323 163.748ZM383.297 164.946L380.324 163.748L379.681 165.344L382.655 166.542L383.297 164.946ZM384.283 164.962C383.987 165.079 383.632 165.08 383.296 164.946L382.656 166.542C383.379 166.833 384.19 166.848 384.913 166.563L384.283 164.962ZM384.844 164.468C384.73 164.685 384.537 164.862 384.283 164.962L384.913 166.563C385.542 166.316 386.058 165.859 386.368 165.266L384.844 164.468Z" fill="#04146C" mask="url(#path-42-inside-1_13868:116967)"/>
<path d="M48.712 185.316C39.2777 185.314 30.0543 188.109 22.2086 193.348C14.3629 198.588 8.24711 206.036 4.63482 214.752C1.02253 223.467 0.0759623 233.058 1.91483 242.311C3.7537 251.565 8.2954 260.065 14.9655 266.737C21.6357 273.409 30.1346 277.953 39.3875 279.795C48.6404 281.637 58.2317 280.693 66.9482 277.083C75.6647 273.473 83.1149 267.36 88.3567 259.516C93.5984 251.671 96.3962 242.449 96.3962 233.014C96.3962 220.367 91.3728 208.237 82.4307 199.292C73.4886 190.347 61.3599 185.32 48.712 185.316ZM48.712 274.335C40.5359 274.335 32.5434 271.911 25.7452 267.368C18.947 262.826 13.6484 256.37 10.5195 248.816C7.39066 241.262 6.57201 232.95 8.16709 224.931C9.76218 216.912 13.6994 209.546 19.4808 203.765C25.2622 197.983 32.6281 194.046 40.6471 192.451C48.6662 190.856 56.9781 191.675 64.5319 194.803C72.0857 197.932 78.542 203.231 83.0844 210.029C87.6268 216.827 90.0513 224.82 90.0513 232.996C90.0513 238.425 88.982 243.8 86.9045 248.816C84.8271 253.831 81.782 258.388 77.9433 262.227C74.1046 266.066 69.5474 269.111 64.5319 271.188C59.5164 273.266 54.1408 274.335 48.712 274.335Z" fill="#04146C" stroke="#04146C" stroke-width="0.545239" stroke-linecap="round" stroke-linejoin="round"/>
<path d="M48.7892 229.618L48.7965 230.066L49.2371 230.146C49.909 230.268 50.5167 230.622 50.9544 231.146C51.3919 231.67 51.6317 232.331 51.6318 233.014C51.6308 233.681 51.4015 234.328 50.9821 234.847C50.5627 235.366 49.9782 235.726 49.3259 235.867L48.8888 235.962L48.8961 236.409L49.0172 243.909H48.4068L48.5279 236.409L48.5352 235.96L48.096 235.867C47.4349 235.727 46.8431 235.361 46.4219 234.832C46.0007 234.304 45.7762 233.645 45.7868 232.97C45.7974 232.294 46.0426 231.643 46.4802 231.128L46.0692 230.779L46.4802 231.128C46.9178 230.613 47.5208 230.266 48.186 230.146L48.6276 230.067L48.6347 229.618L48.7115 224.81L48.7892 229.618ZM47.3768 235.012L47.6798 234.559L47.3768 235.012C47.7721 235.277 48.2367 235.417 48.712 235.417C49.0276 235.417 49.3401 235.355 49.6316 235.235C49.9232 235.114 50.1881 234.937 50.4113 234.714C50.6345 234.49 50.8115 234.226 50.9322 233.934C51.053 233.642 51.1152 233.33 51.1152 233.014C51.1152 232.539 50.9742 232.074 50.7102 231.679L50.2568 231.982L50.7102 231.679C50.4461 231.284 50.0708 230.976 49.6316 230.794C49.1925 230.612 48.7093 230.565 48.2432 230.657C47.777 230.75 47.3488 230.979 47.0127 231.315C46.6766 231.651 46.4477 232.079 46.355 232.545C46.2623 233.012 46.3098 233.495 46.4917 233.934C46.6736 234.373 46.9816 234.748 47.3768 235.012Z" stroke="#04146C" stroke-width="1.09048"/>
<path d="M87.8312 233.134H80.9521" stroke="#04146C" stroke-width="1.09048" stroke-linecap="round" stroke-linejoin="round"/>
<path d="M16.4679 233.134H9.58887" stroke="#04146C" stroke-width="1.09048" stroke-linecap="round" stroke-linejoin="round"/>
<path d="M48.7109 194.011V200.89" stroke="#04146C" stroke-width="1.09048" stroke-linecap="round" stroke-linejoin="round"/>
<path d="M48.7109 265.374V272.253" stroke="#04146C" stroke-width="1.09048" stroke-linecap="round" stroke-linejoin="round"/>
<path d="M29.1523 199.255L32.5895 205.21" stroke="#04146C" stroke-width="0.545239" stroke-linecap="round" stroke-linejoin="round"/>
<path d="M64.834 261.054L68.2712 267.014" stroke="#04146C" stroke-width="0.545239" stroke-linecap="round" stroke-linejoin="round"/>
<path d="M14.832 213.571L20.7867 217.013" stroke="#04146C" stroke-width="0.545239" stroke-linecap="round" stroke-linejoin="round"/>
<path d="M76.6318 249.253L82.5912 252.695" stroke="#04146C" stroke-width="0.545239" stroke-linecap="round" stroke-linejoin="round"/>
<path d="M87.8312 233.133H80.9521" stroke="#04146C" stroke-width="0.545239" stroke-linecap="round" stroke-linejoin="round"/>
<path d="M16.4669 233.133H9.58789" stroke="#04146C" stroke-width="0.545239" stroke-linecap="round" stroke-linejoin="round"/>
<path d="M82.5912 213.571L76.6318 217.013" stroke="#04146C" stroke-width="0.545239" stroke-linecap="round" stroke-linejoin="round"/>
<path d="M20.7867 249.253L14.832 252.695" stroke="#04146C" stroke-width="0.545239" stroke-linecap="round" stroke-linejoin="round"/>
<path d="M68.2712 199.255L64.834 205.21" stroke="#04146C" stroke-width="0.545239" stroke-linecap="round" stroke-linejoin="round"/>
<path d="M32.5895 261.054L29.1523 267.014" stroke="#04146C" stroke-width="0.545239" stroke-linecap="round" stroke-linejoin="round"/>
<path fill-rule="evenodd" clip-rule="evenodd" d="M47.1006 178.342H50.5155V184.525H49.9198V186.878H47.8057V184.525H47.1006V178.342Z" fill="white"/>
<path d="M50.5155 178.342H50.7881C50.7881 178.191 50.6661 178.069 50.5155 178.069V178.342ZM47.1006 178.342V178.069C46.95 178.069 46.828 178.191 46.828 178.342H47.1006ZM50.5155 184.525V184.797C50.6661 184.797 50.7881 184.675 50.7881 184.525H50.5155ZM49.9198 184.525V184.252C49.7692 184.252 49.6472 184.374 49.6472 184.525H49.9198ZM49.9198 186.878V187.151C50.0704 187.151 50.1924 187.029 50.1924 186.878H49.9198ZM47.8057 186.878H47.533C47.533 187.029 47.6551 187.151 47.8057 187.151V186.878ZM47.8057 184.525H48.0783C48.0783 184.374 47.9562 184.252 47.8057 184.252V184.525ZM47.1006 184.525H46.828C46.828 184.675 46.95 184.797 47.1006 184.797V184.525ZM50.5155 178.069H47.1006V178.614H50.5155V178.069ZM50.7881 184.525V178.342H50.2429V184.525H50.7881ZM49.9198 184.797H50.5155V184.252H49.9198V184.797ZM50.1924 186.878V184.525H49.6472V186.878H50.1924ZM47.8057 187.151H49.9198V186.605H47.8057V187.151ZM47.533 184.525V186.878H48.0783V184.525H47.533ZM47.1006 184.797H47.8057V184.252H47.1006V184.797ZM46.828 178.342V184.525H47.3732V178.342H46.828Z" fill="#04146C"/>
<circle cx="48.818" cy="232.894" r="2.69395" fill="#04146C"/>
<path d="M84.331 53.6055H352.859C355.109 53.6076 357.335 54.0533 359.412 54.9171C361.489 55.7809 363.376 57.0458 364.963 58.6394C366.551 60.2331 367.808 62.1241 368.664 64.2044C369.52 66.2846 369.957 68.5132 369.951 70.7626V250.103H67.2393V70.7626C67.2329 68.5132 67.6701 66.2846 68.5259 64.2044C69.3818 62.1241 70.6395 60.2331 72.227 58.6394C73.8146 57.0458 75.7008 55.7809 77.7778 54.9171C79.8547 54.0533 82.0816 53.6076 84.331 53.6055Z" fill="#04146C" stroke="#04146C" stroke-width="0.860254" stroke-linecap="round" stroke-linejoin="round"/>
<path d="M350.263 71.6709H86.1654C83.3148 71.6709 81.0039 73.9818 81.0039 76.8324V235.979H355.425V76.8324C355.425 73.9818 353.114 71.6709 350.263 71.6709Z" fill="white"/>
<path d="M43.1523 256.625C43.1523 256.625 46.568 258.517 56.7984 260.067H382.277C382.277 260.067 389.877 259.206 393.276 256.796L43.1523 256.625Z" fill="#04146C" stroke="#04146C" stroke-width="0.860254" stroke-linecap="round" stroke-linejoin="round"/>
<path d="M391.045 249.483H45.3832C43.676 249.483 42.292 250.867 42.292 252.574V254.373C42.292 256.081 43.676 257.465 45.3832 257.465H391.045C392.752 257.465 394.136 256.081 394.136 254.373V252.574C394.136 250.867 392.752 249.483 391.045 249.483Z" fill="white" stroke="#04146C" stroke-width="0.860254" stroke-linecap="round" stroke-linejoin="round"/>
<path d="M217.853 63.8847C219.316 63.8847 220.502 62.6984 220.502 61.2351C220.502 59.7717 219.316 58.5854 217.853 58.5854C216.389 58.5854 215.203 59.7717 215.203 61.2351C215.203 62.6984 216.389 63.8847 217.853 63.8847Z" fill="white"/>
<path d="M308.54 93.6074V59.1972H342.951V93.6074H308.54Z" fill="white" stroke="#04146C" stroke-width="0.860254"/>
<path d="M254.11 310.035V279.591H284.554V310.035H254.11Z" fill="white" stroke="#04146C" stroke-width="0.674657"/>
<path d="M295.095 310.035V279.591H325.539V310.035H295.095Z" fill="#04146C" stroke="#04146C" stroke-width="0.674657"/>
<path d="M357.332 310.035V279.591H387.776V310.035H357.332Z" fill="#04146C" stroke="#04146C" stroke-width="0.674657"/>
<path d="M128.489 104.679V98.5109H305.432V104.679H128.489Z" fill="#04146C" stroke="#04146C" stroke-width="0.344102"/>
<path d="M128.489 182.035V98.5109H132.492V182.035H128.489Z" fill="#04146C" stroke="#04146C" stroke-width="0.344102"/>
<path d="M305.604 98.3389H128.317V182.644H305.604V98.3389Z" stroke="#04146C" stroke-width="0.344102" stroke-linecap="round" stroke-linejoin="round"/>
<path d="M146.997 98.6519V182.59" stroke="#04146C" stroke-width="0.344102" stroke-linecap="round" stroke-linejoin="round"/>
<path d="M164.804 98.6519V182.59" stroke="#04146C" stroke-width="0.344102" stroke-linecap="round" stroke-linejoin="round"/>
<path d="M182.614 98.6519V182.59" stroke="#04146C" stroke-width="0.344102" stroke-linecap="round" stroke-linejoin="round"/>
<path d="M200.418 98.6519V182.59" stroke="#04146C" stroke-width="0.344102" stroke-linecap="round" stroke-linejoin="round"/>
<path d="M218.227 98.6519V182.59" stroke="#04146C" stroke-width="0.344102" stroke-linecap="round" stroke-linejoin="round"/>
<path d="M236.033 98.6519V182.59" stroke="#04146C" stroke-width="0.344102" stroke-linecap="round" stroke-linejoin="round"/>
<path d="M253.84 98.6519V182.59" stroke="#04146C" stroke-width="0.344102" stroke-linecap="round" stroke-linejoin="round"/>
<path d="M271.632 98.6519V182.59" stroke="#04146C" stroke-width="0.344102" stroke-linecap="round" stroke-linejoin="round"/>
<path d="M289.438 98.6519V182.59" stroke="#04146C" stroke-width="0.344102" stroke-linecap="round" stroke-linejoin="round"/>
<path d="M128.613 116.11H305.376" stroke="#04146C" stroke-width="0.344102" stroke-linecap="round" stroke-linejoin="round"/>
<path d="M128.613 126.848H305.376" stroke="#04146C" stroke-width="0.344102" stroke-linecap="round" stroke-linejoin="round"/>
<path d="M128.613 137.567H305.376" stroke="#04146C" stroke-width="0.344102" stroke-linecap="round" stroke-linejoin="round"/>
<path d="M128.613 148.283H305.376" stroke="#04146C" stroke-width="0.344102" stroke-linecap="round" stroke-linejoin="round"/>
<path d="M128.613 159.005H305.376" stroke="#04146C" stroke-width="0.344102" stroke-linecap="round" stroke-linejoin="round"/>
<path d="M128.613 169.725H305.376" stroke="#04146C" stroke-width="0.344102" stroke-linecap="round" stroke-linejoin="round"/>
<path d="M246.91 152.146H239.525V169.394H246.91V152.146Z" fill="#04146C" stroke="#04146C" stroke-width="0.344102" stroke-miterlimit="10"/>
<path d="M258.746 141.811H251.361V169.412H258.746V141.811Z" fill="#04146C" stroke="#04146C" stroke-width="0.344102" stroke-miterlimit="10"/>
<path d="M270.565 124.561H263.181V169.41H270.565V124.561Z" fill="#04146C" stroke="#04146C" stroke-width="0.344102" stroke-miterlimit="10"/>
<path d="M282.403 141.303H275.019V169.393H282.403V141.303Z" fill="#04146C" stroke="#04146C" stroke-width="0.344102" stroke-miterlimit="10"/>
<path d="M294.221 124.561H286.836V169.41H294.221V124.561Z" fill="#04146C" stroke="#04146C" stroke-width="0.344102" stroke-miterlimit="10"/>
<path d="M170.88 148.667V169.163C165.444 169.163 160.231 167.004 156.387 163.16C152.543 159.316 150.384 154.103 150.384 148.667C150.384 143.231 152.543 138.018 156.387 134.174C160.231 130.331 165.444 128.171 170.88 128.171V148.667Z" fill="#04146C" stroke="#04146C" stroke-width="0.344102" stroke-miterlimit="10"/>
<path d="M170.88 148.669L190.363 142.332C191.202 144.892 191.527 147.593 191.32 150.28C191.113 152.967 190.378 155.586 189.157 157.988C187.935 160.39 186.252 162.527 184.203 164.277C182.154 166.027 179.78 167.356 177.217 168.187C175.175 168.871 173.034 169.213 170.88 169.199V148.669Z" fill="white" stroke="#04146C" stroke-width="0.344102" stroke-miterlimit="10"/>
<path d="M170.88 148.669V128.173C175.218 128.122 179.458 129.473 182.968 132.024C186.477 134.574 189.071 138.189 190.363 142.331L170.88 148.669Z" fill="#04146C" stroke="#04146C" stroke-width="0.344102" stroke-miterlimit="10"/>
<mask id="mask0_13868:116967" style="mask-type:alpha" maskUnits="userSpaceOnUse" x="114" y="178" width="207" height="58">
<path d="M114.554 178.342H320.154V235.979H114.554V178.342Z" fill="#C4C4C4"/>
</mask>
<g mask="url(#mask0_13868:116967)">
<path d="M127.629 198.446V192.278H304.571V198.446H127.629Z" fill="#04146C" stroke="#04146C" stroke-width="0.344102"/>
<path d="M127.629 275.802V192.278H131.632V275.802H127.629Z" fill="#04146C" stroke="#04146C" stroke-width="0.344102"/>
<path d="M304.743 192.106H127.457V276.411H304.743V192.106Z" stroke="#04146C" stroke-width="0.344102" stroke-linecap="round" stroke-linejoin="round"/>
<path d="M146.137 192.419V276.357" stroke="#04146C" stroke-width="0.344102" stroke-linecap="round" stroke-linejoin="round"/>
<path d="M163.943 192.419V276.357" stroke="#04146C" stroke-width="0.344102" stroke-linecap="round" stroke-linejoin="round"/>
<path d="M181.754 192.419V276.357" stroke="#04146C" stroke-width="0.344102" stroke-linecap="round" stroke-linejoin="round"/>
<path d="M199.558 192.419V276.357" stroke="#04146C" stroke-width="0.344102" stroke-linecap="round" stroke-linejoin="round"/>
<path d="M217.366 192.419V276.357" stroke="#04146C" stroke-width="0.344102" stroke-linecap="round" stroke-linejoin="round"/>
<path d="M235.174 192.419V276.357" stroke="#04146C" stroke-width="0.344102" stroke-linecap="round" stroke-linejoin="round"/>
<path d="M252.98 192.419V276.357" stroke="#04146C" stroke-width="0.344102" stroke-linecap="round" stroke-linejoin="round"/>
<path d="M270.771 192.419V276.357" stroke="#04146C" stroke-width="0.344102" stroke-linecap="round" stroke-linejoin="round"/>
<path d="M288.578 192.419V276.357" stroke="#04146C" stroke-width="0.344102" stroke-linecap="round" stroke-linejoin="round"/>
<path d="M127.753 209.877H304.516" stroke="#04146C" stroke-width="0.344102" stroke-linecap="round" stroke-linejoin="round"/>
<path d="M127.753 220.615H304.516" stroke="#04146C" stroke-width="0.344102" stroke-linecap="round" stroke-linejoin="round"/>
<path d="M127.753 231.334H304.516" stroke="#04146C" stroke-width="0.344102" stroke-linecap="round" stroke-linejoin="round"/>
<path d="M257.886 235.578H250.501V263.179H257.886V235.578Z" fill="#04146C" stroke="#04146C" stroke-width="0.344102" stroke-miterlimit="10"/>
<path d="M269.705 218.328H262.32V263.177H269.705V218.328Z" fill="#04146C" stroke="#04146C" stroke-width="0.344102" stroke-miterlimit="10"/>
<path d="M281.543 235.07H274.158V263.16H281.543V235.07Z" fill="#04146C" stroke="#04146C" stroke-width="0.344102" stroke-miterlimit="10"/>
<path d="M293.36 218.328H285.976V263.177H293.36V218.328Z" fill="#04146C" stroke="#04146C" stroke-width="0.344102" stroke-miterlimit="10"/>
</g>
<rect x="25.2637" y="134.382" width="89.5881" height="20.5306" fill="#3FFFF3"/>
</svg>
