<svg width="486" height="346" viewBox="0 0 486 346" fill="none" xmlns="http://www.w3.org/2000/svg">
<rect x="278.303" y="18.501" width="196.697" height="77.4136" fill="#3FFFF3"/>
<path d="M409.201 65.4717H63.9863V274.815H409.201V65.4717Z" fill="white" stroke="#04146C" stroke-width="1.98416" stroke-linecap="round" stroke-linejoin="round"/>
<path d="M263.374 93.9229H76.1729V110.278H263.374V93.9229Z" stroke="#04146C" stroke-width="1.00646" stroke-linecap="round" stroke-linejoin="round"/>
<path d="M399.38 186.911H272.597V262.174H399.38V186.911Z" stroke="#04146C" stroke-width="1.00646" stroke-linecap="round" stroke-linejoin="round"/>
<path d="M272.597 262.174L399.38 186.911" stroke="#04146C" stroke-width="1.00646" stroke-linecap="round" stroke-linejoin="round"/>
<path d="M399.38 262.174L272.597 186.911" stroke="#04146C" stroke-width="1.00646" stroke-linecap="round" stroke-linejoin="round"/>
<path d="M76.708 227.44H94.0694" stroke="#04146C" stroke-width="1.00646" stroke-linecap="round" stroke-linejoin="round"/>
<path d="M76.708 236.117H114.913" stroke="#04146C" stroke-width="1.00646" stroke-linecap="round" stroke-linejoin="round"/>
<path d="M409.201 65.4717H63.9863V80.5685H409.201V65.4717Z" fill="#04146C" stroke="#04146C" stroke-width="1.00646" stroke-linecap="round" stroke-linejoin="round"/>
<path d="M361.422 70.4502H76.1729V76.1174H361.422V70.4502Z" fill="white" stroke="#04146C" stroke-width="1.00646" stroke-linecap="round" stroke-linejoin="round"/>
<path d="M263.374 119.546H76.1729V214.032H263.374V119.546Z" stroke="#04146C" stroke-width="1.00646" stroke-linecap="round" stroke-linejoin="round"/>
<path d="M189.44 167.817L155.009 147.939V187.694L189.44 167.817Z" fill="#04146C" stroke="#04146C" stroke-width="1.00646" stroke-linecap="round" stroke-linejoin="round"/>
<path d="M432.45 97.7593H424.922V105.288H432.45V97.7593Z" fill="white" stroke="#04146C" stroke-width="1.00646" stroke-linecap="round" stroke-linejoin="round"/>
<path d="M433.256 91.7461H289.41V173.627H433.256V91.7461Z" fill="white" stroke="#04146C" stroke-width="1.00646" stroke-linecap="round" stroke-linejoin="round"/>
<path d="M294.136 87.4517H285.859V95.7283H294.136V87.4517Z" fill="white" stroke="#04146C" stroke-width="1.00646" stroke-linecap="round" stroke-linejoin="round"/>
<path d="M294.136 167.962H285.859V176.239H294.136V167.962Z" fill="white" stroke="#04146C" stroke-width="1.00646" stroke-linecap="round" stroke-linejoin="round"/>
<path d="M437.018 167.962H428.741V176.239H437.018V167.962Z" fill="white" stroke="#04146C" stroke-width="1.00646" stroke-linecap="round" stroke-linejoin="round"/>
<path d="M122.482 223.639L127.835 249.068C127.885 249.236 127.98 249.384 128.109 249.495C128.238 249.606 128.395 249.674 128.561 249.69C128.726 249.707 128.893 249.672 129.039 249.589C129.186 249.506 129.306 249.379 129.384 249.224L132.855 241.488C132.923 241.333 133.033 241.202 133.17 241.111C133.308 241.021 133.468 240.975 133.629 240.98L141.701 241.447C141.872 241.456 142.042 241.409 142.187 241.313C142.332 241.217 142.447 241.076 142.515 240.91C142.583 240.743 142.601 240.559 142.568 240.381C142.535 240.203 142.451 240.04 142.329 239.914L123.877 222.762C123.743 222.629 123.573 222.546 123.391 222.525C123.209 222.504 123.025 222.547 122.868 222.646C122.711 222.745 122.588 222.895 122.518 223.074C122.449 223.253 122.436 223.452 122.482 223.639Z" fill="#04146C"/>
<rect x="0.217908" y="0.377428" width="19.4044" height="19.4044" transform="matrix(0.86601 0.500028 3.18351e-05 1 154.838 12.7255)" stroke="#04146C" stroke-width="0.503228"/>
<rect x="0.217892" y="0.1258" width="19.4044" height="19.4044" transform="matrix(0.86601 -0.500028 -3.18351e-05 1 137.599 22.898)" stroke="#04146C" stroke-width="0.503228" stroke-dasharray="2.01 2.01"/>
<rect y="0.2516" width="19.4044" height="19.4044" transform="matrix(0.866041 0.499972 -0.866041 0.499972 155.026 32.8675)" stroke="#04146C" stroke-width="0.503228" stroke-dasharray="2.01 2.01"/>
<rect x="0.217908" y="0.377428" width="19.4044" height="19.4044" transform="matrix(0.86601 0.500028 3.18351e-05 1 137.597 22.6762)" stroke="#04146C" stroke-width="0.503228"/>
<rect x="0.217892" y="0.1258" width="19.4044" height="19.4044" transform="matrix(0.86601 -0.500028 -3.18351e-05 1 154.838 32.8487)" stroke="#04146C" stroke-width="0.503228"/>
<rect x="0.435816" width="19.4044" height="19.4044" transform="matrix(0.866041 -0.499972 0.866041 0.499972 137.626 23.0045)" stroke="#04146C" stroke-width="0.503228"/>
<path d="M374.646 112.365V43.648C374.646 41.9887 375.305 40.3974 376.478 39.2241C377.651 38.0508 379.243 37.3916 380.902 37.3916H449.619C451.278 37.3916 452.87 38.0508 454.043 39.2241C455.216 40.3974 455.875 41.9887 455.875 43.648V112.365C455.875 114.024 455.216 115.616 454.043 116.789C452.87 117.962 451.278 118.622 449.619 118.622H380.902C379.243 118.622 377.651 117.962 376.478 116.789C375.305 115.616 374.646 114.024 374.646 112.365Z" fill="#04146C"/>
<path d="M397.368 84.1579C397.368 82.6007 397.047 81.5321 396.406 80.952C395.765 80.3719 394.864 80.0818 393.704 80.0818V75.5019C394.864 75.5019 395.765 75.1966 396.406 74.586C397.047 73.9448 397.368 72.9525 397.368 71.6091V62.0371C397.368 60.3884 397.75 59.045 398.513 58.0069C399.307 56.9688 400.559 56.4497 402.268 56.4497H407.764V61.4876H405.474C404.65 61.4876 404.039 61.7013 403.642 62.1287C403.276 62.5562 403.093 63.2584 403.093 64.2355V73.1662C403.093 74.5096 402.772 75.5325 402.131 76.2347C401.49 76.9064 400.742 77.3186 399.887 77.4713V77.9293C400.711 78.0514 401.444 78.5094 402.085 79.3032C402.757 80.0971 403.093 81.1352 403.093 82.4175V91.3025C403.093 92.2795 403.276 92.9818 403.642 93.4092C404.009 93.8367 404.635 94.0504 405.52 94.0504H407.764V99.0882H402.268C400.681 99.0882 399.459 98.5997 398.605 97.6227C397.78 96.6762 397.368 95.3175 397.368 93.5466V84.1579Z" fill="white"/>
<path d="M432.268 71.3801C432.268 72.9372 432.588 74.0059 433.229 74.586C433.871 75.1661 434.771 75.4561 435.932 75.4561V80.036C434.771 80.036 433.871 80.3566 433.229 80.9978C432.588 81.6084 432.268 82.5855 432.268 83.9289V93.5008C432.268 95.1496 431.855 96.493 431.031 97.5311C430.237 98.5692 428.985 99.0882 427.276 99.0882H421.917V94.0504H424.207C425.031 94.0504 425.627 93.8367 425.993 93.4092C426.39 93.0123 426.589 92.31 426.589 91.3025V82.3717C426.589 81.0283 426.909 80.0207 427.55 79.349C428.192 78.6468 428.94 78.2193 429.795 78.0667V77.6087C428.97 77.4866 428.222 77.0286 427.55 76.2347C426.909 75.4409 426.589 74.4028 426.589 73.1204V64.2355C426.589 63.289 426.405 62.602 426.039 62.1745C425.673 61.7166 425.047 61.4876 424.161 61.4876H421.917V56.4497H427.367C428.985 56.4497 430.207 56.9382 431.031 57.9153C431.855 58.8618 432.268 60.2205 432.268 61.9913V71.3801Z" fill="white"/>
<rect x="0.217908" y="0.377428" width="22.1584" height="22.1584" transform="matrix(0.86601 0.500028 3.18351e-05 1 282.847 282.862)" stroke="#04146C" stroke-width="0.503228"/>
<rect x="0.217892" y="0.1258" width="22.1584" height="22.1584" transform="matrix(0.86601 -0.500028 -3.18351e-05 1 263.221 294.411)" stroke="#04146C" stroke-width="0.503228" stroke-dasharray="2.01 2.01"/>
<rect y="0.2516" width="22.1584" height="22.1584" transform="matrix(0.866041 0.499972 -0.866041 0.499972 283.035 305.756)" stroke="#04146C" stroke-width="0.503228" stroke-dasharray="2.01 2.01"/>
<rect x="0.217908" y="0.377428" width="22.1584" height="22.1584" transform="matrix(0.86601 0.500028 3.18351e-05 1 263.22 294.189)" stroke="#04146C" stroke-width="0.503228"/>
<rect x="0.217892" y="0.1258" width="22.1584" height="22.1584" transform="matrix(0.86601 -0.500028 -3.18351e-05 1 282.847 305.739)" stroke="#04146C" stroke-width="0.503228"/>
<rect x="0.435816" width="22.1584" height="22.1584" transform="matrix(0.866041 -0.499972 0.866041 0.499972 263.249 294.52)" stroke="#04146C" stroke-width="0.503228"/>
<path d="M159.292 295.224V243.306C159.292 242.052 159.79 240.849 160.677 239.962C161.564 239.075 162.767 238.577 164.021 238.577H215.958C217.212 238.577 218.415 239.075 219.302 239.962C220.189 240.849 220.687 242.052 220.687 243.306V295.243C220.687 295.864 220.564 296.479 220.327 297.053C220.089 297.626 219.741 298.148 219.302 298.587C218.863 299.026 218.341 299.374 217.768 299.612C217.194 299.85 216.579 299.972 215.958 299.972H164.021C163.398 299.972 162.782 299.849 162.207 299.61C161.632 299.371 161.109 299.021 160.67 298.58C160.231 298.139 159.883 297.615 159.646 297.039C159.41 296.463 159.289 295.846 159.292 295.224Z" fill="#04146C"/>
<path d="M176.457 253.167H184.596V256.977H180.752V281.566H184.596V285.376H176.457V253.167Z" fill="white"/>
<path d="M203.51 285.376H195.372V281.566H199.216V256.977H195.372V253.167H203.51V285.376Z" fill="white"/>
<path d="M40.2803 107.718V60.5744C40.2803 59.4361 40.7325 58.3443 41.5374 57.5394C42.3424 56.7344 43.4341 56.2822 44.5725 56.2822H91.7156C92.854 56.2822 93.9457 56.7344 94.7506 57.5394C95.5556 58.3443 96.0078 59.4361 96.0078 60.5744V107.718C96.0078 108.856 95.5556 109.948 94.7506 110.753C93.9457 111.558 92.854 112.01 91.7156 112.01H44.5725C43.4341 112.01 42.3424 111.558 41.5374 110.753C40.7325 109.948 40.2803 108.856 40.2803 107.718Z" fill="#04146C"/>
<path d="M62.7682 70.8107H66.2219V97.6014H62.7682V70.8107ZM70.0812 70.8107H73.5349V97.6014H70.0812V70.8107Z" fill="white"/>
<path d="M365.2 294.712V237.203C365.2 235.814 365.752 234.482 366.734 233.499C367.717 232.517 369.049 231.965 370.438 231.965H427.969C429.358 231.965 430.69 232.517 431.672 233.499C432.655 234.482 433.207 235.814 433.207 237.203V294.734C433.207 295.422 433.071 296.103 432.808 296.738C432.545 297.374 432.159 297.951 431.672 298.438C431.186 298.924 430.609 299.31 429.973 299.573C429.338 299.836 428.657 299.972 427.969 299.972H370.438C369.748 299.972 369.066 299.836 368.429 299.571C367.792 299.306 367.213 298.919 366.727 298.43C366.24 297.941 365.855 297.361 365.593 296.723C365.331 296.085 365.197 295.402 365.2 294.712Z" fill="#04146C"/>
<path d="M378.815 266.452V264.421L390.016 257.718L391.67 260.329L385.17 264.363L382.529 265.378L385.141 266.278L391.815 270.253L390.161 272.864L378.815 266.452Z" fill="white"/>
<path d="M405.665 277.478L402.793 278.784L392.26 255.339L395.219 254.091L405.665 277.478Z" fill="white"/>
<path d="M419.385 264.13V266.162L408.185 272.864L406.531 270.224L413.03 266.22L415.671 265.175L413.059 264.304L406.386 260.3L408.04 257.718L419.385 264.13Z" fill="white"/>
<rect x="11" y="222.52" width="105.274" height="21.1966" fill="#3FFFF3"/>
</svg>
